<svg xmlns="http://www.w3.org/2000/svg" width="24" height="24" fill="none"><path fill="#181d25" fill-rule="evenodd" d="M4.289 9.844a9.87 9.87 0 0 1 9.866-9.866 9.87 9.87 0 0 1 9.866 9.866 9.8 9.8 0 0 1-1.291 4.882.96.96 0 1 1-1.668-.951 7.9 7.9 0 0 0 1.039-3.931 7.95 7.95 0 0 0-7.946-7.946 7.95 7.95 0 0 0-7.946 7.946 7.95 7.95 0 0 0 7.946 7.946c1.415 0 2.74-.369 3.889-1.015a.96.96 0 0 1 .941 1.673 9.83 9.83 0 0 1-4.83 1.261 9.82 9.82 0 0 1-6.241-2.225l-6.301 6.258A.96.96 0 0 1 .26 22.381l6.292-6.249a9.82 9.82 0 0 1-2.263-6.288m14.687-3.781a.96.96 0 0 1 .229 1.338l-3.89 5.494-.035.047a2.434 2.434 0 0 1-3.566.246L9.242 10.93a.96.96 0 0 1 1.295-1.418l2.478 2.263.015.013a.51.51 0 0 0 .739-.034l3.869-5.464a.96.96 0 0 1 1.338-.229z"/></svg>