<svg xmlns="http://www.w3.org/2000/svg" width="24" height="24" fill="none"><path fill="#181d25" d="M11.716 24c-1.43-.009-2.622-1.232-2.622-2.669V10.653a2.56 2.56 0 0 1 1.5-2.342 2.58 2.58 0 0 1 2.758.344l8.458 6.273.063.051c.757.67 1.01 1.692.661 2.667-.372 1.038-1.31 1.735-2.39 1.775h-.034l-3.94.003-2.411 3.473c-.519.724-1.222 1.1-2.042 1.1zm-.004-14.061a.8.8 0 0 0-.327.072.7.7 0 0 0-.417.642V21.33c0 .452.392.792.742.794.147 0 .31-.022.512-.301l2.686-3.869a.94.94 0 0 1 .769-.403l4.409-.004c.369-.02.597-.299.681-.533.061-.17.088-.411-.115-.61l-8.438-6.259-.045-.036a.7.7 0 0 0-.458-.172zM7.38 17.195a.94.94 0 0 0-.358-1.276 7.52 7.52 0 0 1-3.834-6.544 7.51 7.51 0 0 1 7.5-7.5 7.51 7.51 0 0 1 7.499 7.5.94.94 0 0 0 .937.937.94.94 0 0 0 .937-.937c0-5.17-4.205-9.375-9.374-9.375a9.39 9.39 0 0 0-9.374 9.374 9.39 9.39 0 0 0 4.791 8.179.936.936 0 0 0 1.276-.359z"/></svg>