<svg xmlns="http://www.w3.org/2000/svg" width="24" height="24" fill="none"><path fill="#000" d="M18.619 8.381a.875.875 0 0 1 0 1.238L16.237 12l2.382 2.381a.875.875 0 1 1-1.238 1.238L15 13.237l-2.381 2.382a.875.875 0 1 1-1.238-1.238L13.763 12 11.38 9.619a.875.875 0 0 1 1.24-1.239L15 10.763l2.381-2.382a.875.875 0 0 1 1.238 0"/><path fill="#000" fill-rule="evenodd" d="M7.342 3.424A.88.88 0 0 1 8 3.125h13A2.875 2.875 0 0 1 23.875 6v12A2.875 2.875 0 0 1 21 20.875H8a.88.88 0 0 1-.659-.299l-7-8a.875.875 0 0 1 0-1.152zm1.055 1.451L2.163 12l6.234 7.125H21A1.125 1.125 0 0 0 22.125 18V6A1.125 1.125 0 0 0 21 4.875z" clip-rule="evenodd"/></svg>