<svg xmlns="http://www.w3.org/2000/svg" width="24" height="24" fill="#181d25"><path d="M19.563 1h-3.266a3.44 3.44 0 0 0-3.437 3.438v3.266a3.44 3.44 0 0 0 3.438 3.437h3.266a3.44 3.44 0 0 0 3.438-3.437V4.438A3.444 3.444 0 0 0 19.563 1m1.719 6.703a1.72 1.72 0 0 1-1.719 1.719h-3.266a1.72 1.72 0 0 1-1.719-1.719V4.438a1.72 1.72 0 0 1 1.719-1.719h3.266a1.72 1.72 0 0 1 1.719 1.719zM7.703 1H4.438A3.44 3.44 0 0 0 1 4.438v3.266a3.44 3.44 0 0 0 3.438 3.437h3.266a3.44 3.44 0 0 0 3.437-3.437V4.438A3.44 3.44 0 0 0 7.703 1m1.719 6.703a1.72 1.72 0 0 1-1.719 1.719H4.438a1.72 1.72 0 0 1-1.719-1.719V4.438a1.72 1.72 0 0 1 1.719-1.719h3.266a1.72 1.72 0 0 1 1.719 1.719zm-1.719 5.156H4.438A3.44 3.44 0 0 0 1 16.297v3.266A3.44 3.44 0 0 0 4.438 23h3.266a3.44 3.44 0 0 0 3.437-3.437v-3.266a3.44 3.44 0 0 0-3.437-3.437zm1.719 6.703a1.72 1.72 0 0 1-1.719 1.719H4.438a1.72 1.72 0 0 1-1.719-1.719v-3.266a1.72 1.72 0 0 1 1.719-1.719h3.266a1.72 1.72 0 0 1 1.719 1.719zm12.719-.859a.86.86 0 0 0-.86.859 1.72 1.72 0 0 1-1.719 1.719h-3.266a1.72 1.72 0 0 1-1.719-1.719v-3.266a1.72 1.72 0 0 1 1.719-1.719h3.266a1.72 1.72 0 0 1 1.576 1.031.86.86 0 0 0 1.132.443.86.86 0 0 0 .443-1.132 3.44 3.44 0 0 0-3.151-2.061h-3.266a3.44 3.44 0 0 0-3.437 3.437v3.266a3.44 3.44 0 0 0 3.438 3.438h3.266A3.44 3.44 0 0 0 23 19.563a.86.86 0 0 0-.859-.859z"/></svg>