<svg xmlns="http://www.w3.org/2000/svg" width="24" height="24" fill="none"><path fill="#181d25" d="M15.393 15.187H2.814c-.876 0-1.686-.397-2.222-1.088s-.72-1.575-.502-2.423l2.272-8.858A3.75 3.75 0 0 1 5.995 0h12.567c.875 0 1.685.396 2.221 1.087s.72 1.573.504 2.421l-2.26 8.857a3.75 3.75 0 0 1-3.634 2.823zM5.995 1.875c-.857 0-1.604.58-1.817 1.409l-2.272 8.858a.93.93 0 0 0 .167.808.93.93 0 0 0 .741.363h12.578c.858 0 1.605-.581 1.817-1.412l2.261-8.857a.93.93 0 0 0-.168-.807.93.93 0 0 0-.741-.363zm15.61 19.302 2.26-8.857a2.79 2.79 0 0 0-.716-2.663.94.94 0 0 0-1.326-.015.94.94 0 0 0-.015 1.326.93.93 0 0 1 .239.889l-2.26 8.857a1.87 1.87 0 0 1-1.817 1.411H5.392a.93.93 0 0 1-.908-1.17l.758-2.956a.94.94 0 0 0-.675-1.141.94.94 0 0 0-1.141.675l-.758 2.956c-.218.848-.034 1.731.502 2.423S4.517 24 5.392 24H17.97a3.75 3.75 0 0 0 3.634-2.823z"/></svg>