<svg xmlns="http://www.w3.org/2000/svg" xml:space="preserve" viewBox="0 0 24 24"><path d="M22 6.3c-1.3 0-2.5-.4-3.5-1.2-1.1-.8-1.9-2.1-2.2-3.5-.1-.3-.1-.7-.1-1.1h-3.7v15.8c0 1.5-1 2.7-2.3 3.2-.4.1-.8.2-1.2.2-.6 0-1.1-.2-1.5-.5-1-.6-1.6-1.6-1.6-2.8 0-1.9 1.5-3.4 3.4-3.4.4 0 .7.1 1.1.2V9.4c-.6-.1-.9-.1-1.3-.1-2.1 0-4 .9-5.4 2.4-1 1.2-1.7 2.6-1.8 4.2-.1 2 .6 4 2.1 5.4.2.2.4.4.7.6 1.2 1 2.8 1.5 4.4 1.5.4 0 .7 0 1.1-.1 1.5-.2 2.9-.9 4-2 1.3-1.3 2.1-3.1 2.1-5V8q.9.75 2.1 1.2c1.1.5 2.3.8 3.6.8z"/></svg>